<?xml version="1.0" encoding="UTF-8" standalone="no"?>
<!-- Created with Inkscape (http://www.inkscape.org/) -->

<svg
   width="210mm"
   height="297mm"
   viewBox="0 0 210 297"
   version="1.1"
   id="svg5"
   inkscape:export-filename="it4science-days.png"
   inkscape:export-xdpi="96"
   inkscape:export-ydpi="96"
   inkscape:version="1.2.1 (9c6d41e410, 2022-07-14)"
   sodipodi:docname="it4science-days.svg"
   xmlns:inkscape="http://www.inkscape.org/namespaces/inkscape"
   xmlns:sodipodi="http://sodipodi.sourceforge.net/DTD/sodipodi-0.dtd"
   xmlns="http://www.w3.org/2000/svg"
   xmlns:svg="http://www.w3.org/2000/svg">
  <sodipodi:namedview
     id="namedview7"
     pagecolor="#ffffff"
     bordercolor="#666666"
     borderopacity="1.0"
     inkscape:showpageshadow="2"
     inkscape:pageopacity="0.0"
     inkscape:pagecheckerboard="0"
     inkscape:deskcolor="#d1d1d1"
     inkscape:document-units="mm"
     showgrid="false"
     inkscape:zoom="0.5901994"
     inkscape:cx="39.817052"
     inkscape:cy="440.52908"
     inkscape:window-width="1366"
     inkscape:window-height="699"
     inkscape:window-x="0"
     inkscape:window-y="32"
     inkscape:window-maximized="1"
     inkscape:current-layer="text113" />
  <defs
     id="defs2" />
  <g
     inkscape:label="Ebene 1"
     inkscape:groupmode="layer"
     id="layer1">
    <g
       aria-label=" _  _    _  _                 _                             __   _                    
(_)| |_ | || |     ___   ___ (_)  ___  _ __    ___  ___    / /__| |  __ _  _   _  ___ 
| || __|| || |_   / __| / __|| | / _ \| '_ \  / __|/ _ \  / // _` | / _` || | | |/ __|
| || |_ |__   _|_ \__ \| (__ | ||  __/| | | || (__|  __/ / /| (_| || (_| || |_| |\__ \
|_| \__|   |_| (_)|___/ \___||_| \___||_| |_| \___|\___|/_/  \__,_| \__,_| \__, ||___/
                                                                           |___/"
       id="text113"
       style="font-weight:bold;font-size:3.52778px;line-height:1.25;font-family:monospace;-inkscape-font-specification:'monospace Bold';letter-spacing:0px;word-spacing:0px;stroke-width:0.264583"
       transform="translate(-10.606972,-20.04873)">
      <path
         id="path175"
         d="m 23.583984,49.285156 c -0.153202,0.714791 0.09722,1.025956 0.829297,0.855469 0.784115,0 1.568229,0 2.352344,0 -0.145115,-0.416473 0.320384,-1.443561 -0.3,-1.384766 -0.960547,0 -1.921094,0 -2.881641,0 0,0.176433 0,0.352865 0,0.529297 z" />
      <path
         id="path177"
         d="m 29.955078,49.285156 c -0.153202,0.714791 0.09722,1.025956 0.829297,0.855469 0.784766,0 1.569531,0 2.354297,0 -0.145115,-0.416473 0.320384,-1.443561 -0.3,-1.384766 -0.961198,0 -1.922396,0 -2.883594,0 0,0.176433 0,0.352865 0,0.529297 z" />
      <path
         id="path179"
         d="m 40.574219,49.285156 c -0.153202,0.714791 0.09722,1.025956 0.829297,0.855469 0.784765,0 1.569531,0 2.354296,0 -0.145115,-0.416473 0.320384,-1.443561 -0.299999,-1.384766 -0.961198,0 -1.922396,0 -2.883594,0 0,0.176433 0,0.352865 0,0.529297 z" />
      <path
         id="path181"
         d="m 46.947266,49.285156 c -0.153203,0.714791 0.09722,1.025956 0.829296,0.855469 0.784115,0 1.56823,0 2.352344,0 -0.145115,-0.416473 0.320384,-1.443561 -0.3,-1.384766 -0.960547,0 -1.921094,0 -2.88164,0 0,0.176433 0,0.352865 0,0.529297 z" />
      <path
         id="path183"
         d="m 85.177734,49.285156 c -0.153202,0.714791 0.09722,1.025956 0.829297,0.855469 0.784115,0 1.568229,0 2.352344,0 -0.145115,-0.416473 0.320384,-1.443561 -0.3,-1.384766 -0.960547,0 -1.921094,0 -2.881641,0 0,0.176433 0,0.352865 0,0.529297 z" />
      <path
         id="path185"
         d="m 148.89453,49.285156 c -0.1532,0.714791 0.0972,1.025956 0.8293,0.855469 0.78411,0 1.56823,0 2.35234,0 -0.14511,-0.416473 0.32039,-1.443561 -0.3,-1.384766 -0.96055,0 -1.92109,0 -2.88164,0 0,0.176433 0,0.352865 0,0.529297 z" />
      <path
         id="path187"
         d="m 151.01758,49.285156 c -0.1532,0.714791 0.0972,1.025956 0.82929,0.855469 0.78477,0 1.56954,0 2.3543,0 -0.14511,-0.416473 0.32039,-1.443561 -0.3,-1.384766 -0.9612,0 -1.92239,0 -2.88359,0 0,0.176433 0,0.352865 0,0.529297 z" />
      <path
         id="path189"
         d="m 159.51367,49.285156 c -0.1532,0.714791 0.0972,1.025956 0.8293,0.855469 0.78411,0 1.56823,0 2.35234,0 -0.14511,-0.416473 0.32039,-1.443561 -0.3,-1.384766 -0.96054,0 -1.92109,0 -2.88164,0 0,0.176433 0,0.352865 0,0.529297 z" />
      <path
         id="path191"
         d="m 22.734375,50.238281 c -0.836286,1.099176 -0.791391,2.692241 0.05164,3.775087 0.2983,0.311635 1.382325,0.198233 1.596063,0.08028 -0.533495,-0.939966 -1.049987,-2.11286 -0.425685,-3.144705 0.287199,-0.550412 0.756245,-1.213878 -0.230614,-0.966521 -0.338235,0.06429 -0.875593,-0.18731 -0.991406,0.255859 z" />
      <path
         id="path193"
         d="m 23.583984,53.693359 c -0.153019,0.71526 0.09593,1.028549 0.829297,0.857422 0.784115,0 1.568229,0 2.352344,0 -0.14516,-0.417079 0.320643,-1.445122 -0.3,-1.386719 -0.960547,0 -1.921094,10e-7 -2.881641,0 0,0.176433 0,0.352865 0,0.529297 z" />
      <path
         id="path195"
         d="m 26.292969,50.742188 c 0.628037,0.945862 0.405408,2.135733 -0.174805,3.041423 -0.552785,0.718001 0.736838,0.282799 1.143945,0.399983 0.447498,-0.07519 0.605422,-0.74158 0.808203,-1.140625 0.389609,-1.046446 0.02993,-2.196152 -0.609374,-3.060547 -0.394544,0.136342 -1.704074,-0.300025 -1.406007,0.269837 0.07935,0.163309 0.158692,0.326619 0.238038,0.489929 z" />
      <path
         id="path197"
         d="m 28.695312,50.494141 c 10e-7,1.352213 0,2.704427 0,4.05664 0.437449,-0.146275 1.496481,0.329033 1.451172,-0.3 0,-1.428646 0,-2.857291 0,-4.285937 -0.437448,0.146275 -1.496481,-0.329033 -1.451172,0.3 0,0.07643 0,0.152864 0,0.229297 z" />
      <path
         id="path199"
         d="m 32.943359,50.494141 c 0,1.352213 0,2.704427 0,4.05664 0.437449,-0.146275 1.496481,0.329033 1.451172,-0.3 0,-1.428646 0,-2.857291 0,-4.285937 -0.437448,0.146275 -1.496481,-0.329033 -1.451172,0.3 0,0.07643 0,0.152864 0,0.229297 z" />
      <path
         id="path201"
         d="m 34.203125,53.693359 c -0.15302,0.71526 0.09593,1.028549 0.829297,0.857422 0.784114,0 1.568229,0 2.352344,0 -0.145161,-0.417079 0.320643,-1.445122 -0.3,-1.386719 -0.960547,10e-7 -1.921094,0 -2.881641,0 0,0.176433 0,0.352865 0,0.529297 z" />
      <path
         id="path203"
         d="m 39.316406,50.494141 c 0,1.352213 0,2.704427 0,4.05664 0.436822,-0.146251 1.494929,0.328783 1.449219,-0.3 0,-1.428646 0,-2.857291 0,-4.285937 -0.436822,0.146251 -1.494929,-0.328783 -1.449219,0.3 0,0.07643 0,0.152864 0,0.229297 z" />
      <path
         id="path205"
         d="m 43.564453,50.494141 c 0,1.352213 0,2.704427 0,4.05664 0.436822,-0.146251 1.494929,0.328783 1.449219,-0.3 0,-1.428646 0,-2.857291 0,-4.285937 -0.436822,0.146251 -1.494929,-0.328783 -1.449219,0.3 0,0.07643 0,0.152864 0,0.229297 z" />
      <path
         id="path207"
         d="m 45.6875,50.494141 c 0,1.352213 0,2.704427 0,4.05664 0.436822,-0.146251 1.494929,0.328783 1.449219,-0.3 0,-1.428646 0,-2.857291 0,-4.285937 -0.436822,0.146251 -1.494929,-0.328783 -1.449219,0.3 0,0.07643 0,0.152864 0,0.229297 z" />
      <path
         id="path209"
         d="m 49.935547,50.494141 c 0,1.352213 0,2.704427 0,4.05664 0.436822,-0.146251 1.494929,0.328783 1.449219,-0.3 0,-1.428646 0,-2.857291 0,-4.285937 -0.436822,0.146251 -1.494929,-0.328783 -1.449219,0.3 0,0.07643 0,0.152864 0,0.229297 z" />
      <path
         id="path211"
         d="m 61.814453,53.693359 c -0.15302,0.71526 0.09593,1.028549 0.829297,0.857422 0.784115,0 1.568229,0 2.352344,0 -0.145161,-0.417079 0.320643,-1.445122 -0.3,-1.386719 -0.960547,10e-7 -1.921094,0 -2.881641,0 0,0.176433 0,0.352865 0,0.529297 z" />
      <path
         id="path213"
         d="m 63.9375,53.693359 c -0.15302,0.71526 0.09593,1.028549 0.829297,0.857422 0.784766,0 1.569531,0 2.354297,0 -0.145161,-0.417079 0.320643,-1.445122 -0.3,-1.386719 -0.961198,10e-7 -1.922396,0 -2.883594,0 0,0.176433 0,0.352865 0,0.529297 z" />
      <path
         id="path215"
         d="m 66.0625,53.693359 c -0.15302,0.71526 0.09593,1.028549 0.829297,0.857422 0.784114,0 1.568229,0 2.352344,0 -0.145161,-0.417079 0.320643,-1.445122 -0.3,-1.386719 -0.960547,10e-7 -1.921094,0 -2.881641,0 0,0.176433 0,0.352865 0,0.529297 z" />
      <path
         id="path217"
         d="m 74.556641,53.693359 c -0.15302,0.71526 0.09593,1.028549 0.829297,0.857422 0.784765,0 1.569531,0 2.354296,0 -0.14516,-0.417079 0.320644,-1.445122 -0.3,-1.386719 -0.961198,10e-7 -1.922395,0 -2.883593,0 0,0.176433 0,0.352865 0,0.529297 z" />
      <path
         id="path219"
         d="m 76.681641,53.693359 c -0.15302,0.71526 0.09593,1.028549 0.829296,0.857422 0.784115,0 1.56823,0 2.352344,0 -0.14516,-0.417079 0.320643,-1.445122 -0.3,-1.386719 -0.960547,10e-7 -1.921094,0 -2.88164,0 0,0.176433 0,0.352865 0,0.529297 z" />
      <path
         id="path221"
         d="m 78.804688,53.693359 c -0.15302,0.71526 0.09593,1.028549 0.829296,0.857422 0.784766,0 1.569532,0 2.354297,0 -0.14516,-0.417079 0.320643,-1.445122 -0.3,-1.386719 -0.961198,10e-7 -1.922396,0 -2.883593,0 0,0.176433 -10e-7,0.352865 0,0.529297 z" />
      <path
         id="path223"
         d="m 84.328125,50.236328 c -0.864699,1.131208 -0.772883,2.765171 0.103283,3.862674 0.32255,0.08153 1.57419,0.261928 1.500721,-0.0953 -0.558309,-0.93628 -0.986335,-2.134522 -0.338356,-3.144741 0.405928,-0.624557 0.551954,-1.085965 -0.374242,-0.87654 -0.318467,0.05519 -0.782191,-0.169115 -0.891406,0.253906 z" />
      <path
         id="path225"
         d="m 85.177734,53.693359 c -0.153019,0.71526 0.09593,1.028549 0.829297,0.857422 0.784115,0 1.568229,0 2.352344,0 -0.14516,-0.417079 0.320643,-1.445122 -0.3,-1.386719 -0.960547,0 -1.921094,0 -2.881641,0 0,0.176433 0,0.352865 0,0.529297 z" />
      <path
         id="path227"
         d="m 87.886719,50.742188 c 0.628121,0.946943 0.403233,2.134068 -0.174805,3.041423 -0.552785,0.718001 0.736838,0.282799 1.143945,0.399983 0.449125,-0.07462 0.602827,-0.742171 0.808203,-1.140625 0.386515,-1.04636 0.02984,-2.195593 -0.609374,-3.060547 -0.394544,0.136342 -1.704074,-0.300025 -1.406007,0.269837 0.07935,0.163309 0.158692,0.326619 0.238038,0.489929 z" />
      <path
         id="path229"
         d="m 93.671875,53.693359 c -0.15302,0.71526 0.09593,1.028549 0.829297,0.857422 0.784766,0 1.569531,0 2.354297,0 -0.145161,-0.417079 0.320643,-1.445122 -0.3,-1.386719 -0.961198,10e-7 -1.922396,0 -2.883594,0 0,0.176433 0,0.352865 0,0.529297 z" />
      <path
         id="path231"
         d="m 95.796875,53.693359 c -0.15302,0.71526 0.09593,1.028549 0.829297,0.857422 0.784114,0 1.568229,0 2.352344,0 -0.145161,-0.417079 0.320643,-1.445122 -0.3,-1.386719 -0.960547,10e-7 -1.921094,0 -2.881641,0 0,0.176433 0,0.352865 0,0.529297 z" />
      <path
         id="path233"
         d="m 97.919922,53.693359 c -0.15302,0.71526 0.09593,1.028549 0.829297,0.857422 0.784765,0 1.569531,0 2.354301,0 -0.14516,-0.417079 0.32064,-1.445122 -0.3,-1.386719 -0.961202,10e-7 -1.9224,0 -2.883598,0 0,0.176433 0,0.352865 0,0.529297 z" />
      <path
         id="path235"
         d="m 104.29102,53.693359 c -0.15302,0.71526 0.0959,1.028549 0.82929,0.857422 0.78477,0 1.56953,0 2.3543,0 -0.14516,-0.417079 0.32064,-1.445122 -0.3,-1.386719 -0.9612,10e-7 -1.9224,0 -2.88359,0 0,0.176433 0,0.352865 0,0.529297 z" />
      <path
         id="path237"
         d="m 108.53906,53.693359 c -0.15302,0.71526 0.0959,1.028549 0.8293,0.857422 0.78476,0 1.56953,0 2.3543,0 -0.14516,-0.417079 0.32064,-1.445122 -0.3,-1.386719 -0.9612,10e-7 -1.9224,0 -2.8836,0 0,0.176433 0,0.352865 0,0.529297 z" />
      <path
         id="path239"
         d="m 110.66406,53.693359 c -0.15302,0.71526 0.0959,1.028549 0.8293,0.857422 0.78411,0 1.56823,0 2.35234,0 -0.14516,-0.417079 0.32065,-1.445122 -0.3,-1.386719 -0.96054,0 -1.92109,0 -2.88164,0 0,0.176433 0,0.352865 0,0.529297 z" />
      <path
         id="path241"
         d="m 121.2832,53.693359 c -0.15302,0.71526 0.0959,1.028549 0.8293,0.857422 0.78411,0 1.56823,0 2.35234,0 -0.14516,-0.417079 0.32065,-1.445122 -0.3,-1.386719 -0.96054,0 -1.92109,10e-7 -2.88164,0 0,0.176433 0,0.352865 0,0.529297 z" />
      <path
         id="path243"
         d="m 123.40625,53.693359 c -0.15302,0.71526 0.0959,1.028549 0.8293,0.857422 0.78476,0 1.56953,0 2.35429,0 -0.14516,-0.417079 0.32065,-1.445122 -0.3,-1.386719 -0.96119,10e-7 -1.92239,0 -2.88359,0 0,0.176433 0,0.352865 0,0.529297 z" />
      <path
         id="path245"
         d="m 125.53125,53.693359 c -0.15302,0.71526 0.0959,1.028549 0.8293,0.857422 0.78411,0 1.56823,0 2.35234,0 -0.14516,-0.417079 0.32064,-1.445122 -0.3,-1.386719 -0.96055,0 -1.92109,0 -2.88164,0 0,0.176433 0,0.352865 0,0.529297 z" />
      <path
         id="path247"
         d="m 131.90234,53.693359 c -0.15302,0.71526 0.0959,1.028549 0.8293,0.857422 0.78477,0 1.56953,0 2.3543,0 -0.14516,-0.417079 0.32064,-1.445122 -0.3,-1.386719 -0.9612,10e-7 -1.9224,0 -2.8836,0 0,0.176433 0,0.352865 0,0.529297 z" />
      <path
         id="path249"
         d="m 134.02734,53.693359 c -0.15302,0.71526 0.0959,1.028549 0.8293,0.857422 0.78412,0 1.56823,0 2.35234,0 -0.14516,-0.417079 0.32065,-1.445122 -0.3,-1.386719 -0.96054,0 -1.92109,10e-7 -2.88164,0 0,0.176433 0,0.352865 0,0.529297 z" />
      <path
         id="path251"
         d="m 136.15039,53.693359 c -0.15302,0.71526 0.0959,1.028549 0.8293,0.857422 0.78411,0 1.56823,0 2.35234,0 -0.14516,-0.417079 0.32064,-1.445122 -0.3,-1.386719 -0.96055,0 -1.92109,0 -2.88164,0 0,0.176433 0,0.352865 0,0.529297 z" />
      <path
         id="path253"
         d="m 148.36914,50.392578 c -0.56906,1.217424 -1.13613,2.435781 -1.70703,3.652344 0.50967,-0.115178 1.31223,0.230059 1.6336,-0.181148 0.58854,-1.258504 1.17461,-2.518168 1.76484,-3.775883 -0.50968,0.115177 -1.31223,-0.23006 -1.6336,0.181147 l -0.0424,0.09057 z" />
      <path
         id="path255"
         d="m 152.61719,50.392578 c -0.56906,1.217424 -1.13613,2.435781 -1.70703,3.652344 0.50967,-0.115178 1.31223,0.230059 1.63359,-0.181148 0.58855,-1.258504 1.17461,-2.518168 1.76484,-3.775883 -0.50967,0.115177 -1.31223,-0.23006 -1.63359,0.181147 l -0.0424,0.09057 z" />
      <path
         id="path257"
         d="m 153.14258,53.693359 c -0.15302,0.71526 0.0959,1.028549 0.8293,0.857422 0.78411,0 1.56822,0 2.35234,0 -0.14516,-0.417079 0.32064,-1.445122 -0.3,-1.386719 -0.96055,0 -1.92109,0 -2.88164,0 0,0.176433 0,0.352865 0,0.529297 z" />
      <path
         id="path259"
         d="m 155.26562,53.693359 c -0.15301,0.71526 0.0959,1.028549 0.8293,0.857422 0.78412,0 1.56823,0 2.35235,0 -0.14516,-0.417079 0.32064,-1.445122 -0.3,-1.386719 -0.96055,0 -1.9211,10e-7 -2.88165,0 0,0.176433 0,0.352865 0,0.529297 z" />
      <path
         id="path261"
         d="m 158.25391,50.494141 c 0,1.352213 0,2.704427 0,4.05664 0.43682,-0.146251 1.49493,0.328783 1.44921,-0.3 0,-1.428646 10e-6,-2.857291 0,-4.285937 -0.43682,0.146251 -1.49492,-0.328783 -1.44921,0.3 0,0.07643 0,0.152864 0,0.229297 z" />
      <path
         id="path263"
         d="m 162.50195,50.494141 c 0,1.352213 0,2.704427 0,4.05664 0.43682,-0.146251 1.49493,0.328783 1.44922,-0.3 0,-1.428646 0,-2.857291 0,-4.285937 -0.43682,0.146251 -1.49493,-0.328783 -1.44922,0.3 0,0.07643 0,0.152864 0,0.229297 z" />
      <path
         id="path265"
         d="m 168.00977,53.693359 c -0.15302,0.71526 0.0959,1.028549 0.82929,0.857422 0.78412,0 1.56823,0 2.35235,0 -0.14516,-0.417079 0.32064,-1.445122 -0.3,-1.386719 -0.96055,0 -1.9211,10e-7 -2.88164,0 0,0.176433 0,0.352865 0,0.529297 z" />
      <path
         id="path267"
         d="m 170.13281,53.693359 c -0.15302,0.71526 0.0959,1.028549 0.8293,0.857422 0.78411,0 1.56823,0 2.35234,0 -0.14516,-0.417079 0.32065,-1.445122 -0.3,-1.386719 -0.96054,0 -1.92109,0 -2.88164,0 0,0.176433 0,0.352865 0,0.529297 z" />
      <path
         id="path269"
         d="m 174.38086,53.693359 c -0.15302,0.71526 0.0959,1.028549 0.8293,0.857422 0.78411,0 1.56823,0 2.35234,0 -0.14516,-0.417079 0.32064,-1.445122 -0.3,-1.386719 -0.96055,0 -1.92109,0 -2.88164,0 0,0.176433 0,0.352865 0,0.529297 z" />
      <path
         id="path271"
         d="m 180.75195,53.693359 c -0.15302,0.71526 0.0959,1.028549 0.8293,0.857422 0.78477,0 1.56953,0 2.3543,0 -0.14516,-0.417079 0.32064,-1.445122 -0.3,-1.386719 -0.9612,10e-7 -1.9224,0 -2.8836,0 0,0.176433 0,0.352865 0,0.529297 z" />
      <path
         id="path273"
         d="m 189.24805,53.693359 c -0.15302,0.71526 0.0959,1.028549 0.82929,0.857422 0.78412,0 1.56823,0 2.35235,0 -0.14516,-0.417079 0.32064,-1.445122 -0.3,-1.386719 -0.96055,0 -1.9211,10e-7 -2.88164,0 0,0.176433 0,0.352865 0,0.529297 z" />
      <path
         id="path275"
         d="m 195.61914,53.693359 c -0.15302,0.71526 0.0959,1.028549 0.8293,0.857422 0.78476,0 1.56953,0 2.35429,0 -0.14516,-0.417079 0.32065,-1.445122 -0.3,-1.386719 -0.96119,0 -1.92239,0 -2.88359,0 0,0.176433 0,0.352865 0,0.529297 z" />
      <path
         id="path277"
         d="m 197.74414,53.693359 c -0.15302,0.71526 0.0959,1.028549 0.8293,0.857422 0.78411,0 1.56823,0 2.35234,0 -0.14516,-0.417079 0.32064,-1.445122 -0.3,-1.386719 -0.96055,0 -1.92109,10e-7 -2.88164,0 0,0.176433 0,0.352865 0,0.529297 z" />
      <path
         id="path279"
         d="m 199.86719,53.693359 c -0.15302,0.71526 0.0959,1.028549 0.82929,0.857422 0.78477,0 1.56954,0 2.3543,0 -0.14516,-0.417079 0.32064,-1.445122 -0.3,-1.386719 -0.9612,0 -1.92239,0 -2.88359,0 0,0.176433 0,0.352865 0,0.529297 z" />
      <path
         id="path281"
         d="m 22.324219,54.902344 c 0,1.352864 0,2.705729 0,4.058594 0.436822,-0.146252 1.494929,0.328782 1.449219,-0.3 0,-1.429297 -10e-7,-2.858594 0,-4.287891 -0.436822,0.146251 -1.494929,-0.328783 -1.449219,0.3 0,0.07643 0,0.152864 0,0.229297 z" />
      <path
         id="path283"
         d="m 26.572266,54.902344 c 0,1.352864 0,2.705729 0,4.058594 0.436821,-0.146252 1.494928,0.328782 1.449218,-0.3 0,-1.429297 0,-2.858594 0,-4.287891 -0.436821,0.146251 -1.494928,-0.328783 -1.449218,0.3 0,0.07643 0,0.152864 0,0.229297 z" />
      <path
         id="path285"
         d="m 28.695312,54.902344 c 10e-7,1.352864 0,2.705729 0,4.058594 0.437449,-0.146276 1.496481,0.329032 1.451172,-0.3 0,-1.429297 0,-2.858594 0,-4.287891 -0.437448,0.146275 -1.496481,-0.329033 -1.451172,0.3 0,0.07643 10e-7,0.152864 0,0.229297 z" />
      <path
         id="path287"
         d="m 32.080078,58.103516 c -0.15302,0.715259 0.09593,1.028549 0.829297,0.857422 0.784115,0 1.568229,-10e-7 2.352344,0 -0.145161,-0.41708 0.320643,-1.445123 -0.3,-1.386719 -0.960547,0 -1.921094,0 -2.881641,0 0,0.176432 0,0.352864 0,0.529297 z" />
      <path
         id="path289"
         d="m 34.203125,58.103516 c -0.15302,0.715259 0.09593,1.028549 0.829297,0.857422 0.784114,-10e-7 1.568229,0 2.352344,0 -0.145161,-0.41708 0.320643,-1.445123 -0.3,-1.386719 -0.960547,0 -1.921094,0 -2.881641,0 0,0.176432 0,0.352864 0,0.529297 z" />
      <path
         id="path291"
         d="m 37.191406,54.902344 c 0,1.352864 0,2.705729 0,4.058594 0.436822,-0.146252 1.494929,0.328782 1.449219,-0.3 0,-1.429297 0,-2.858594 0,-4.287891 -0.436822,0.146251 -1.494929,-0.328783 -1.449219,0.3 0,0.07643 0,0.152864 0,0.229297 z" />
      <path
         id="path293"
         d="m 39.316406,54.902344 c 0,1.352864 0,2.705729 0,4.058594 0.436822,-0.146252 1.494929,0.328782 1.449219,-0.3 0,-1.429297 0,-2.858594 0,-4.287891 -0.436822,0.146251 -1.494929,-0.328783 -1.449219,0.3 0,0.07643 0,0.152864 0,0.229297 z" />
      <path
         id="path295"
         d="m 43.564453,54.902344 c 0,1.352864 0,2.705729 0,4.058594 0.436822,-0.146252 1.494929,0.328782 1.449219,-0.3 0,-1.429297 0,-2.858594 0,-4.287891 -0.436822,0.146251 -1.494929,-0.328783 -1.449219,0.3 0,0.07643 0,0.152864 0,0.229297 z" />
      <path
         id="path297"
         d="m 45.6875,54.902344 c 0,1.352864 0,2.705729 0,4.058594 0.436822,-0.146252 1.494929,0.328782 1.449219,-0.3 0,-1.429297 0,-2.858594 0,-4.287891 -0.436822,0.146251 -1.494929,-0.328783 -1.449219,0.3 0,0.07643 0,0.152864 0,0.229297 z" />
      <path
         id="path299"
         d="m 49.935547,54.902344 c 0,1.352864 0,2.705729 0,4.058594 0.436822,-0.146252 1.494929,0.328782 1.449219,-0.3 0,-1.429297 0,-2.858594 0,-4.287891 -0.436822,0.146251 -1.494929,-0.328783 -1.449219,0.3 0,0.07643 0,0.152864 0,0.229297 z" />
      <path
         id="path301"
         d="m 51.195312,58.103516 c -0.153019,0.715259 0.09593,1.028549 0.829297,0.857422 0.784115,0 1.56823,0 2.352344,0 -0.14516,-0.41708 0.320643,-1.445123 -0.3,-1.386719 -0.960547,0 -1.921094,0 -2.881641,0 0,0.176432 10e-7,0.352864 0,0.529297 z" />
      <path
         id="path303"
         d="m 61.289062,54.802734 c -0.56906,1.217425 -1.13613,2.435781 -1.707031,3.652344 0.509676,-0.115178 1.312232,0.230059 1.633596,-0.181147 0.588545,-1.258505 1.174611,-2.518169 1.764842,-3.775884 -0.509676,0.115178 -1.312232,-0.230059 -1.633596,0.181147 l -0.04238,0.09057 z" />
      <path
         id="path305"
         d="m 63.9375,58.103516 c -0.15302,0.715259 0.09593,1.028549 0.829297,0.857422 0.784766,0 1.569531,-10e-7 2.354297,0 -0.145161,-0.41708 0.320643,-1.445123 -0.3,-1.386719 -0.961198,0 -1.922396,0 -2.883594,0 0,0.176432 0,0.352864 0,0.529297 z" />
      <path
         id="path307"
         d="m 66.0625,58.103516 c -0.15302,0.715259 0.09593,1.028549 0.829297,0.857422 0.784114,-10e-7 1.568229,0 2.352344,0 -0.145161,-0.41708 0.320643,-1.445123 -0.3,-1.386719 -0.960547,0 -1.921094,0 -2.881641,0 0,0.176432 0,0.352864 0,0.529297 z" />
      <path
         id="path309"
         d="m 69.050781,54.902344 c 0,1.352864 0,2.705729 0,4.058594 0.436822,-0.146252 1.494929,0.328782 1.449219,-0.3 0,-1.429297 0,-2.858594 0,-4.287891 -0.436822,0.146251 -1.494929,-0.328783 -1.449219,0.3 0,0.07643 0,0.152864 0,0.229297 z" />
      <path
         id="path311"
         d="m 74.033203,54.802734 c -0.569061,1.217425 -1.13613,2.435781 -1.707031,3.652344 0.509092,-0.115072 1.310782,0.229827 1.631643,-0.181147 0.589035,-1.25858 1.176605,-2.517845 1.766794,-3.775884 -0.509675,0.115178 -1.312231,-0.230059 -1.633596,0.181147 l -0.04238,0.09057 z" />
      <path
         id="path313"
         d="m 76.681641,58.103516 c -0.15302,0.715259 0.09593,1.028549 0.829296,0.857422 0.784115,-10e-7 1.56823,0 2.352344,0 -0.14516,-0.41708 0.320643,-1.445123 -0.3,-1.386719 -0.960547,0 -1.921094,0 -2.88164,0 0,0.176432 0,0.352864 0,0.529297 z" />
      <path
         id="path315"
         d="m 78.804688,58.103516 c -0.15302,0.715259 0.09593,1.028549 0.829296,0.857422 0.784766,0 1.569532,-10e-7 2.354297,0 -0.14516,-0.41708 0.320643,-1.445123 -0.3,-1.386719 -0.961198,0 -1.922396,0 -2.883593,0 -10e-7,0.176432 0,0.352864 0,0.529297 z" />
      <path
         id="path317"
         d="m 81.792969,54.902344 c 0,1.352864 0,2.705729 0,4.058594 0.437448,-0.146276 1.496481,0.329032 1.451172,-0.3 0,-1.429297 0,-2.858594 0,-4.287891 -0.437449,0.146275 -1.496481,-0.329033 -1.451172,0.3 0,0.07643 0,0.152864 0,0.229297 z" />
      <path
         id="path319"
         d="m 83.917969,54.902344 c 0,1.352864 0,2.705729 0,4.058594 0.436822,-0.146252 1.494929,0.328782 1.449219,-0.3 0,-1.429297 0,-2.858594 0,-4.287891 -0.436822,0.146251 -1.494929,-0.328783 -1.449219,0.3 0,0.07643 0,0.152864 0,0.229297 z" />
      <path
         id="path321"
         d="m 88.166016,54.902344 c 0,1.352864 0,2.705729 0,4.058594 0.436821,-0.146252 1.494928,0.328782 1.449218,-0.3 0,-1.429297 0,-2.858594 0,-4.287891 -0.436821,0.146251 -1.494928,-0.328783 -1.449218,0.3 0,0.07643 0,0.152864 0,0.229297 z" />
      <path
         id="path323"
         d="m 93.148438,54.802734 c -0.569061,1.217425 -1.136131,2.435781 -1.707032,3.652344 0.509092,-0.115072 1.310782,0.229827 1.631643,-0.181147 0.589035,-1.25858 1.176606,-2.517845 1.766795,-3.775884 -0.509676,0.115178 -1.312232,-0.230059 -1.633596,0.181147 l -0.04238,0.09057 z" />
      <path
         id="path325"
         d="m 95.796875,58.103516 c -0.15302,0.715259 0.09593,1.028549 0.829297,0.857422 0.784114,0 1.568229,-10e-7 2.352344,0 -0.145161,-0.41708 0.320643,-1.445123 -0.3,-1.386719 -0.960547,0 -1.921094,0 -2.881641,0 0,0.176432 0,0.352864 0,0.529297 z" />
      <path
         id="path327"
         d="m 100.28711,55.251953 c 0.49876,1.067679 0.99694,2.135632 1.49609,3.203125 0.41347,-0.10813 1.52847,0.229617 1.46587,-0.18108 -0.58992,-1.257862 -1.17584,-2.517594 -1.76469,-3.775951 -0.41347,0.10813 -1.52847,-0.229617 -1.46588,0.18108 0.0895,0.190942 0.17907,0.381884 0.26861,0.572826 z" />
      <path
         id="path329"
         d="m 103.0332,54.902344 c 0,1.352864 0,2.705729 0,4.058594 0.43682,-0.146252 1.49493,0.328782 1.44922,-0.3 0,-1.429297 0,-2.858594 0,-4.287891 -0.43682,0.146251 -1.49493,-0.328783 -1.44922,0.3 0,0.07643 0,0.152864 0,0.229297 z" />
      <path
         id="path331"
         d="m 107.25391,55.027344 c 0.15344,0.441345 -0.33182,1.521397 0.3,1.484375 0.47163,-0.09504 1.44815,0.314821 1.2,-0.5 -0.12652,-0.444711 0.25452,-1.39697 -0.2,-1.513672 -0.43542,0.131255 -1.47423,-0.340892 -1.3,0.4 v 0.1 z" />
      <path
         id="path333"
         d="m 108.53906,58.103516 c -0.15302,0.715259 0.0959,1.028549 0.8293,0.857422 0.78476,-10e-7 1.56953,0 2.3543,0 -0.14516,-0.41708 0.32064,-1.445123 -0.3,-1.386719 -0.9612,0 -1.9224,0 -2.8836,0 0,0.176432 0,0.352864 0,0.529297 z" />
      <path
         id="path335"
         d="m 113.0293,55.251953 c 0.49876,1.067679 0.99693,2.135632 1.49609,3.203125 0.41411,-0.108133 1.52983,0.229655 1.46782,-0.18108 -0.58991,-1.257862 -1.17583,-2.517594 -1.76469,-3.775951 -0.41411,0.108133 -1.52983,-0.229655 -1.46783,0.18108 0.0895,0.190942 0.17907,0.381884 0.26861,0.572826 z" />
      <path
         id="path337"
         d="m 120.75781,54.802734 c -0.56906,1.217425 -1.13613,2.435781 -1.70703,3.652344 0.50968,-0.115178 1.31223,0.230059 1.6336,-0.181147 0.58854,-1.258505 1.17461,-2.518169 1.76484,-3.775884 -0.50968,0.115178 -1.31223,-0.230059 -1.6336,0.181147 l -0.0424,0.09057 z" />
      <path
         id="path339"
         d="m 123.40625,58.103516 c -0.15302,0.715259 0.0959,1.028549 0.8293,0.857422 0.78476,0 1.56953,-10e-7 2.35429,0 -0.14516,-0.41708 0.32065,-1.445123 -0.3,-1.386719 -0.96119,0 -1.92239,0 -2.88359,0 0,0.176432 0,0.352864 0,0.529297 z" />
      <path
         id="path341"
         d="m 125.53125,58.103516 c -0.15302,0.715259 0.0959,1.028549 0.8293,0.857422 0.78411,0 1.56823,-10e-7 2.35234,0 -0.14516,-0.41708 0.32064,-1.445123 -0.3,-1.386719 -0.96055,0 -1.92109,0 -2.88164,0 0,0.176432 0,0.352864 0,0.529297 z" />
      <path
         id="path343"
         d="m 128.51953,54.902344 c 0,1.352864 0,2.705729 0,4.058594 0.43682,-0.146252 1.49493,0.328782 1.44922,-0.3 0,-1.429297 0,-2.858594 0,-4.287891 -0.43682,0.146251 -1.49493,-0.328783 -1.44922,0.3 0,0.07643 0,0.152864 0,0.229297 z" />
      <path
         id="path345"
         d="m 131.37891,54.802734 c -0.5697,1.217433 -1.1381,2.435472 -1.70899,3.652344 0.50968,-0.115178 1.31223,0.230059 1.6336,-0.181147 0.58903,-1.25858 1.1766,-2.517845 1.76679,-3.775884 -0.50967,0.115178 -1.31223,-0.230059 -1.63359,0.181147 l -0.0424,0.09057 z" />
      <path
         id="path347"
         d="m 134.02734,58.103516 c -0.15302,0.715259 0.0959,1.028549 0.8293,0.857422 0.78412,0 1.56823,-10e-7 2.35234,0 -0.14516,-0.41708 0.32065,-1.445123 -0.3,-1.386719 -0.96054,0 -1.92109,0 -2.88164,0 0,0.176432 0,0.352864 0,0.529297 z" />
      <path
         id="path349"
         d="m 138.51562,55.251953 c 0.49937,1.0677 0.99856,2.135482 1.49805,3.203125 0.41346,-0.10813 1.52847,0.229617 1.46587,-0.18108 -0.58992,-1.257862 -1.17584,-2.517594 -1.7647,-3.775951 -0.41411,0.108133 -1.52982,-0.229655 -1.46782,0.18108 0.0895,0.190942 0.17907,0.381884 0.2686,0.572826 z" />
      <path
         id="path351"
         d="m 146.24609,54.802734 c -0.56969,1.217433 -1.13809,2.435472 -1.70898,3.652344 0.50967,-0.115178 1.31223,0.230059 1.6336,-0.181147 0.58903,-1.25858 1.1766,-2.517845 1.76679,-3.775884 -0.50968,0.115178 -1.31223,-0.230059 -1.6336,0.181147 l -0.0424,0.09057 z" />
      <path
         id="path353"
         d="m 150.49414,54.802734 c -0.56969,1.217433 -1.13809,2.435472 -1.70898,3.652344 0.50967,-0.115178 1.31223,0.230059 1.63359,-0.181147 0.58855,-1.258505 1.17461,-2.518169 1.76484,-3.775884 -0.50909,0.115072 -1.31078,-0.229827 -1.63164,0.181147 l -0.0424,0.09057 z" />
      <path
         id="path355"
         d="m 152.61719,54.802734 c -0.56906,1.217425 -1.13613,2.435781 -1.70703,3.652344 0.50967,-0.115178 1.31223,0.230059 1.63359,-0.181147 0.58855,-1.258505 1.17461,-2.518169 1.76484,-3.775884 -0.50967,0.115178 -1.31223,-0.230059 -1.63359,0.181147 l -0.0424,0.09057 z" />
      <path
         id="path357"
         d="m 155.26562,58.103516 c -0.15301,0.715259 0.0959,1.028549 0.8293,0.857422 0.78412,0 1.56823,-10e-7 2.35235,0 -0.14516,-0.41708 0.32064,-1.445123 -0.3,-1.386719 -0.96055,0 -1.9211,0 -2.88165,0 0,0.176432 10e-6,0.352864 0,0.529297 z" />
      <path
         id="path359"
         d="m 157.88281,55.146484 c 0.40959,0.366707 0.70866,0.995614 1.35157,0.808594 0.7458,0.0632 1.36289,0.06197 0.57906,-0.640354 -0.40616,-0.385031 -0.58379,-1.230891 -1.26539,-1.066677 -0.36173,0.106312 -1.78884,-0.23624 -1.33264,0.214683 0.22247,0.227918 0.44493,0.455836 0.6674,0.683754 z" />
      <path
         id="path361"
         d="m 162.50195,54.902344 c 0,1.352864 0,2.705729 0,4.058594 0.43682,-0.146252 1.49493,0.328782 1.44922,-0.3 0,-1.429297 0,-2.858594 0,-4.287891 -0.43682,0.146251 -1.49493,-0.328783 -1.44922,0.3 0,0.07643 0,0.152864 0,0.229297 z" />
      <path
         id="path363"
         d="m 167.48438,54.802734 c -0.56907,1.217425 -1.13614,2.435781 -1.70704,3.652344 0.50968,-0.115178 1.31224,0.230059 1.6336,-0.181147 0.58854,-1.258505 1.17461,-2.518169 1.76484,-3.775884 -0.50967,0.115178 -1.31223,-0.230059 -1.63359,0.181147 l -0.0424,0.09057 z" />
      <path
         id="path365"
         d="m 170.13281,58.103516 c -0.15302,0.715259 0.0959,1.028549 0.8293,0.857422 0.78411,-10e-7 1.56823,0 2.35234,0 -0.14516,-0.41708 0.32065,-1.445123 -0.3,-1.386719 -0.96054,0 -1.92109,0 -2.88164,0 0,0.176432 0,0.352864 0,0.529297 z" />
      <path
         id="path367"
         d="m 172.75,55.148438 c 0.40937,0.365597 0.70987,0.993041 1.35156,0.80664 0.74581,0.0632 1.3629,0.06197 0.57907,-0.640354 -0.40616,-0.385031 -0.5838,-1.230891 -1.2654,-1.066677 -0.36278,0.106137 -1.78948,-0.235956 -1.33458,0.214678 0.22312,0.228571 0.44623,0.457142 0.66935,0.685713 z" />
      <path
         id="path369"
         d="m 177.36914,54.902344 c 0,1.352864 0,2.705729 0,4.058594 0.43682,-0.146252 1.49493,0.328782 1.44922,-0.3 0,-1.429297 0,-2.858594 0,-4.287891 -0.43682,0.146251 -1.49493,-0.328783 -1.44922,0.3 0,0.07643 0,0.152864 0,0.229297 z" />
      <path
         id="path371"
         d="m 179.49414,54.902344 c 0,1.352864 0,2.705729 0,4.058594 0.43682,-0.146252 1.49493,0.328782 1.44922,-0.3 0,-1.429297 0,-2.858594 0,-4.287891 -0.43682,0.146251 -1.49493,-0.328783 -1.44922,0.3 0,0.07643 0,0.152864 0,0.229297 z" />
      <path
         id="path373"
         d="m 183.74023,54.902344 c 0,1.352864 0,2.705729 0,4.058594 0.43745,-0.146276 1.49649,0.329032 1.45118,-0.3 0,-1.429297 0,-2.858594 0,-4.287891 -0.43745,0.146275 -1.49648,-0.329033 -1.45118,0.3 0,0.07643 0,0.152864 0,0.229297 z" />
      <path
         id="path375"
         d="m 187.98828,54.902344 c 0,1.352864 0,2.705729 0,4.058594 0.43682,-0.146252 1.49493,0.328782 1.44922,-0.3 0,-1.429297 0,-2.858594 0,-4.287891 -0.43682,0.146251 -1.49493,-0.328783 -1.44922,0.3 0,0.07643 0,0.152864 0,0.229297 z" />
      <path
         id="path377"
         d="m 192.23633,54.902344 c 0,1.352864 0,2.705729 0,4.058594 0.43682,-0.146252 1.49493,0.328782 1.44922,-0.3 0,-1.429297 0,-2.858594 0,-4.287891 -0.43682,0.146251 -1.49493,-0.328783 -1.44922,0.3 0,0.07643 0,0.152864 0,0.229297 z" />
      <path
         id="path379"
         d="m 195.0957,54.802734 c -0.56906,1.217425 -1.13613,2.435781 -1.70703,3.652344 0.50909,-0.115072 1.31078,0.229827 1.63164,-0.181147 0.58904,-1.25858 1.17661,-2.517845 1.7668,-3.775884 -0.50968,0.115178 -1.31223,-0.230059 -1.6336,0.181147 l -0.0424,0.09057 z" />
      <path
         id="path381"
         d="m 197.74414,58.103516 c -0.15302,0.715259 0.0959,1.028549 0.8293,0.857422 0.78411,-10e-7 1.56823,0 2.35234,0 -0.14516,-0.41708 0.32064,-1.445123 -0.3,-1.386719 -0.96055,0 -1.92109,0 -2.88164,0 0,0.176432 0,0.352864 0,0.529297 z" />
      <path
         id="path383"
         d="m 199.86719,58.103516 c -0.15302,0.715259 0.0959,1.028549 0.82929,0.857422 0.78477,0 1.56954,-10e-7 2.3543,0 -0.14516,-0.41708 0.32064,-1.445123 -0.3,-1.386719 -0.9612,0 -1.92239,0 -2.88359,0 0,0.176432 0,0.352864 0,0.529297 z" />
      <path
         id="path385"
         d="m 202.85547,54.902344 c 0,1.352864 0,2.705729 0,4.058594 0.43745,-0.146276 1.49648,0.329032 1.45117,-0.3 0,-1.429297 0,-2.858594 0,-4.287891 -0.43745,0.146275 -1.49648,-0.329033 -1.45117,0.3 0,0.07643 0,0.152864 0,0.229297 z" />
      <path
         id="path387"
         d="m 22.324219,59.3125 c 0,1.352214 0,2.704427 0,4.056641 0.436822,-0.146252 1.494929,0.328783 1.449219,-0.3 0,-1.428646 0,-2.857292 0,-4.285938 -0.436822,0.146251 -1.494929,-0.328783 -1.449219,0.3 0,0.07643 0,0.152865 0,0.229297 z" />
      <path
         id="path389"
         d="m 26.572266,59.3125 c 0,1.352214 0,2.704427 0,4.056641 0.436821,-0.146252 1.494928,0.328783 1.449218,-0.3 0,-1.428646 0,-2.857292 0,-4.285938 -0.436821,0.146251 -1.494928,-0.328783 -1.449218,0.3 0,0.07643 0,0.152865 0,0.229297 z" />
      <path
         id="path391"
         d="m 28.695312,59.3125 c 10e-7,1.352214 0,2.704427 0,4.056641 0.437449,-0.146276 1.496481,0.329033 1.451172,-0.3 0,-1.428646 0,-2.857292 0,-4.285938 -0.437448,0.146275 -1.496481,-0.329033 -1.451172,0.3 0,0.07643 10e-7,0.152865 0,0.229297 z" />
      <path
         id="path393"
         d="m 32.943359,59.3125 c 0,1.352214 0,2.704427 0,4.056641 0.437449,-0.146276 1.496481,0.329033 1.451172,-0.3 0,-1.428646 0,-2.857292 0,-4.285938 -0.437448,0.146275 -1.496481,-0.329033 -1.451172,0.3 0,0.07643 0,0.152865 0,0.229297 z" />
      <path
         id="path395"
         d="m 34.203125,62.513672 c -0.153202,0.714791 0.09722,1.025956 0.829297,0.855469 0.784114,0 1.568229,0 2.352344,0 -0.145116,-0.416474 0.320383,-1.443561 -0.3,-1.384766 -0.960547,0 -1.921094,0 -2.881641,0 0,0.176432 0,0.352865 0,0.529297 z" />
      <path
         id="path397"
         d="m 39.316406,59.3125 c 0,1.352214 0,2.704427 0,4.056641 0.436822,-0.146252 1.494929,0.328783 1.449219,-0.3 0,-1.428646 0,-2.857292 0,-4.285938 -0.436822,0.146251 -1.494929,-0.328783 -1.449219,0.3 0,0.07643 0,0.152865 0,0.229297 z" />
      <path
         id="path399"
         d="m 40.574219,62.513672 c -0.153202,0.714791 0.09722,1.025956 0.829297,0.855469 0.784765,0 1.569531,0 2.354296,0 -0.145115,-0.416474 0.320384,-1.443561 -0.299999,-1.384766 -0.961198,0 -1.922396,0 -2.883594,0 0,0.176432 0,0.352865 0,0.529297 z" />
      <path
         id="path401"
         d="m 42.699219,62.513672 c -0.153202,0.714791 0.09722,1.025956 0.829297,0.855469 0.784114,0 1.568229,0 2.352343,0 -0.145115,-0.416474 0.320384,-1.443561 -0.3,-1.384766 -0.960546,0 -1.921093,0 -2.88164,0 0,0.176432 0,0.352865 0,0.529297 z" />
      <path
         id="path403"
         d="m 51.195312,62.513672 c -0.153202,0.714791 0.09722,1.025956 0.829297,0.855469 0.784115,0 1.56823,0 2.352344,0 -0.145115,-0.416474 0.320384,-1.443561 -0.3,-1.384766 -0.960547,0 -1.921094,0 -2.881641,0 0,0.176432 0,0.352865 0,0.529297 z" />
      <path
         id="path405"
         d="m 54.183594,59.3125 c 0,1.352214 0,2.704427 0,4.056641 0.436822,-0.146252 1.494929,0.328783 1.449218,-0.3 10e-7,-1.428646 0,-2.857292 0,-4.285938 -0.436821,0.146251 -1.494928,-0.328783 -1.449218,0.3 0,0.07643 0,0.152865 0,0.229297 z" />
      <path
         id="path407"
         d="m 55.441406,62.513672 c -0.153202,0.714791 0.09722,1.025956 0.829297,0.855469 0.784766,0 1.569531,0 2.354297,0 -0.145115,-0.416474 0.320384,-1.443561 -0.3,-1.384766 -0.961198,0 -1.922396,0 -2.883594,0 0,0.176432 0,0.352865 0,0.529297 z" />
      <path
         id="path409"
         d="m 59.931641,59.662109 c 0.49876,1.067679 0.996936,2.135632 1.496093,3.203125 0.414109,-0.108133 1.529827,0.229655 1.467824,-0.18108 -0.589919,-1.257862 -1.175839,-2.517594 -1.764699,-3.775951 -0.414108,0.108133 -1.529827,-0.229655 -1.467823,0.181081 0.08954,0.190942 0.17907,0.381883 0.268605,0.572825 z" />
      <path
         id="path411"
         d="m 61.814453,62.513672 c -0.153202,0.714791 0.09722,1.025956 0.829297,0.855469 0.784115,0 1.568229,0 2.352344,0 -0.145115,-0.416474 0.320384,-1.443561 -0.3,-1.384766 -0.960547,0 -1.921094,0 -2.881641,0 0,0.176432 0,0.352865 0,0.529297 z" />
      <path
         id="path413"
         d="m 63.9375,62.513672 c -0.153202,0.714791 0.09722,1.025956 0.829297,0.855469 0.784766,0 1.569531,0 2.354297,0 -0.145115,-0.416474 0.320384,-1.443561 -0.3,-1.384766 -0.961198,0 -1.922396,0 -2.883594,0 0,0.176432 0,0.352865 0,0.529297 z" />
      <path
         id="path415"
         d="m 68.427734,59.662109 c 0.498761,1.067679 0.996937,2.135632 1.496094,3.203125 0.414109,-0.108133 1.529827,0.229655 1.467824,-0.18108 -0.589919,-1.257862 -1.175839,-2.517594 -1.764699,-3.775951 -0.414109,0.108133 -1.529827,-0.229655 -1.467823,0.181081 0.08953,0.190942 0.179069,0.381883 0.268604,0.572825 z" />
      <path
         id="path417"
         d="m 71.173828,59.3125 c 0,1.352214 0,2.704427 0,4.056641 0.436822,-0.146252 1.494929,0.328783 1.449219,-0.3 0,-1.428646 0,-2.857292 0,-4.285938 -0.436822,0.146251 -1.494929,-0.328783 -1.449219,0.3 0,0.07643 0,0.152865 0,0.229297 z" />
      <path
         id="path419"
         d="m 75.832031,59.056641 c -0.838007,1.100093 -0.789674,2.693107 0.05164,3.77704 0.29755,0.311324 1.381097,0.19867 1.594298,0.08019 -0.533032,-0.943887 -1.04868,-2.119983 -0.421278,-3.154044 0.291282,-0.548862 0.749437,-1.20169 -0.231302,-0.957092 -0.338498,0.06418 -0.873411,-0.186478 -0.99336,0.253907 z" />
      <path
         id="path421"
         d="m 76.681641,62.513672 c -0.153203,0.714791 0.09722,1.025956 0.829296,0.855469 0.784115,0 1.56823,0 2.352344,0 -0.145115,-0.416474 0.320384,-1.443561 -0.3,-1.384766 -0.960547,0 -1.921094,0 -2.88164,0 0,0.176432 0,0.352865 0,0.529297 z" />
      <path
         id="path423"
         d="m 78.804688,62.513672 c -0.153203,0.714791 0.09722,1.025956 0.829296,0.855469 0.784766,0 1.569532,0 2.354297,0 -0.145115,-0.416474 0.320384,-1.443561 -0.3,-1.384766 -0.961198,0 -1.922396,0 -2.883593,0 -10e-7,0.176432 -10e-7,0.352865 0,0.529297 z" />
      <path
         id="path425"
         d="m 83.917969,59.3125 c 0,1.352214 0,2.704427 0,4.056641 0.436822,-0.146252 1.494929,0.328783 1.449219,-0.3 -10e-7,-1.428646 0,-2.857292 0,-4.285938 -0.436822,0.146251 -1.494929,-0.328783 -1.449219,0.3 0,0.07643 0,0.152865 0,0.229297 z" />
      <path
         id="path427"
         d="m 88.166016,59.3125 c 0,1.352214 0,2.704427 0,4.056641 0.436821,-0.146252 1.494928,0.328783 1.449218,-0.3 0,-1.428646 0,-2.857292 0,-4.285938 -0.436821,0.146251 -1.494928,-0.328783 -1.449218,0.3 0,0.07643 0,0.152865 0,0.229297 z" />
      <path
         id="path429"
         d="m 90.289062,59.3125 c 10e-7,1.352214 0,2.704427 0,4.056641 0.436822,-0.146252 1.494929,0.328783 1.449219,-0.3 0,-1.428646 0,-2.857292 0,-4.285938 -0.436822,0.146251 -1.494929,-0.328783 -1.449219,0.3 0,0.07643 10e-7,0.152865 0,0.229297 z" />
      <path
         id="path431"
         d="m 95.796875,62.513672 c -0.153202,0.714791 0.09722,1.025956 0.829297,0.855469 0.784114,0 1.568229,0 2.352344,0 -0.145116,-0.416474 0.320383,-1.443561 -0.3,-1.384766 -0.960547,0 -1.921094,0 -2.881641,0 0,0.176432 0,0.352865 0,0.529297 z" />
      <path
         id="path433"
         d="m 97.919922,62.513672 c -0.153202,0.714791 0.09722,1.025956 0.829297,0.855469 0.784765,0 1.569531,0 2.354301,0 -0.14512,-0.416474 0.32038,-1.443561 -0.3,-1.384766 -0.961202,0 -1.9224,0 -2.883598,0 0,0.176432 0,0.352865 0,0.529297 z" />
      <path
         id="path435"
         d="m 101.64258,59.212891 c -0.56906,1.217424 -1.13613,2.43578 -1.707033,3.652343 0.509673,-0.115177 1.312233,0.23006 1.633593,-0.181147 0.58855,-1.258504 1.17461,-2.518169 1.76484,-3.775884 -0.50967,0.115178 -1.31223,-0.230059 -1.63359,0.181148 l -0.0424,0.09057 z" />
      <path
         id="path437"
         d="m 103.0332,59.3125 c 0,1.352214 0,2.704427 0,4.056641 0.43682,-0.146252 1.49493,0.328783 1.44922,-0.3 0,-1.428646 0,-2.857292 0,-4.285938 -0.43682,0.146251 -1.49493,-0.328783 -1.44922,0.3 0,0.07643 0,0.152865 0,0.229297 z" />
      <path
         id="path439"
         d="m 107.28125,59.3125 c 0,1.352214 0,2.704427 0,4.056641 0.43682,-0.146252 1.49493,0.328783 1.44922,-0.3 0,-1.428646 0,-2.857292 0,-4.285938 -0.43682,0.146251 -1.49493,-0.328783 -1.44922,0.3 0,0.07643 0,0.152865 0,0.229297 z" />
      <path
         id="path441"
         d="m 111.5293,59.3125 c 0,1.352214 0,2.704427 0,4.056641 0.43682,-0.146252 1.49493,0.328783 1.44922,-0.3 0,-1.428646 0,-2.857292 0,-4.285938 -0.43683,0.146251 -1.49493,-0.328783 -1.44922,0.3 0,0.07643 0,0.152865 0,0.229297 z" />
      <path
         id="path443"
         d="m 115.77539,59.3125 c 0,1.352214 0,2.704427 0,4.056641 0.43745,-0.146276 1.49648,0.329033 1.45117,-0.3 0,-1.428646 0,-2.857292 0,-4.285938 -0.43745,0.146275 -1.49648,-0.329033 -1.45117,0.3 0,0.07643 0,0.152865 0,0.229297 z" />
      <path
         id="path445"
         d="m 117.90039,59.3125 c 0,1.352214 0,2.704427 0,4.056641 0.43682,-0.146252 1.49493,0.328783 1.44922,-0.3 0,-1.428646 0,-2.857292 0,-4.285938 -0.43682,0.146251 -1.49493,-0.328783 -1.44922,0.3 0,0.07643 0,0.152865 0,0.229297 z" />
      <path
         id="path447"
         d="m 122.55859,59.056641 c -0.86805,1.130328 -0.77,2.764725 0.10329,3.862673 0.32329,0.08204 1.57557,0.26108 1.50211,-0.09502 -0.55887,-0.933884 -0.98716,-2.133537 -0.34201,-3.142261 0.40765,-0.622602 0.56466,-1.088851 -0.36612,-0.879295 -0.31967,0.05598 -0.78728,-0.170447 -0.89727,0.253907 z" />
      <path
         id="path449"
         d="m 123.40625,62.513672 c -0.1532,0.714791 0.0972,1.025956 0.8293,0.855469 0.78476,0 1.56953,0 2.35429,0 -0.14511,-0.416474 0.32039,-1.443561 -0.3,-1.384766 -0.96119,0 -1.92239,0 -2.88359,0 0,0.176432 0,0.352865 0,0.529297 z" />
      <path
         id="path451"
         d="m 125.53125,62.513672 c -0.1532,0.714791 0.0972,1.025956 0.8293,0.855469 0.78411,0 1.56823,0 2.35234,0 -0.14511,-0.416474 0.32038,-1.443561 -0.3,-1.384766 -0.96055,0 -1.92109,0 -2.88164,0 0,0.176432 0,0.352865 0,0.529297 z" />
      <path
         id="path453"
         d="m 128.51953,59.3125 c 0,1.352214 0,2.704427 0,4.056641 0.43682,-0.146252 1.49493,0.328783 1.44922,-0.3 0,-1.428646 0,-2.857292 0,-4.285938 -0.43682,0.146251 -1.49493,-0.328783 -1.44922,0.3 0,0.07643 0,0.152865 0,0.229297 z" />
      <path
         id="path455"
         d="m 134.02734,62.513672 c -0.1532,0.714791 0.0972,1.025956 0.8293,0.855469 0.78412,0 1.56823,0 2.35234,0 -0.14511,-0.416474 0.32039,-1.443561 -0.3,-1.384766 -0.96054,0 -1.92109,0 -2.88164,0 0,0.176432 0,0.352865 0,0.529297 z" />
      <path
         id="path457"
         d="m 136.15039,62.513672 c -0.1532,0.714791 0.0972,1.025956 0.8293,0.855469 0.78411,0 1.56823,0 2.35234,0 -0.14511,-0.416474 0.32039,-1.443561 -0.3,-1.384766 -0.96055,0 -1.92109,0 -2.88164,0 0,0.176432 0,0.352865 0,0.529297 z" />
      <path
         id="path459"
         d="m 139.87305,59.212891 c -0.56906,1.217424 -1.13613,2.43578 -1.70703,3.652343 0.50967,-0.115177 1.31223,0.23006 1.63359,-0.181147 0.58855,-1.258504 1.17461,-2.518169 1.76484,-3.775884 -0.50967,0.115178 -1.31223,-0.230059 -1.63359,0.181148 l -0.0424,0.09057 z" />
      <path
         id="path461"
         d="m 144.12109,59.212891 c -0.56906,1.217424 -1.13613,2.43578 -1.70703,3.652343 0.50968,-0.115177 1.31223,0.23006 1.6336,-0.181147 0.58854,-1.258504 1.17461,-2.518169 1.76484,-3.775884 -0.50968,0.115178 -1.31223,-0.230059 -1.6336,0.181148 l -0.0424,0.09057 z" />
      <path
         id="path463"
         d="m 148.36914,59.212891 c -0.56906,1.217424 -1.13613,2.43578 -1.70703,3.652343 0.50967,-0.115177 1.31223,0.23006 1.6336,-0.181147 0.58854,-1.258504 1.17461,-2.518169 1.76484,-3.775884 -0.50968,0.115178 -1.31223,-0.230059 -1.6336,0.181148 l -0.0424,0.09057 z" />
      <path
         id="path465"
         d="m 149.75781,59.3125 c 0,1.352214 0,2.704427 0,4.056641 0.43745,-0.146276 1.49648,0.329033 1.45117,-0.3 0,-1.428646 0,-2.857292 0,-4.285938 -0.43744,0.146275 -1.49648,-0.329033 -1.45117,0.3 0,0.07643 0,0.152865 0,0.229297 z" />
      <path
         id="path467"
         d="m 154.41602,59.058594 c -0.83635,1.099636 -0.78925,2.691635 0.0516,3.775087 0.29755,0.311324 1.38109,0.19867 1.5943,0.08019 -0.52893,-0.943884 -1.0494,-2.1166 -0.42322,-3.150131 0.29036,-0.549149 0.75419,-1.206465 -0.22937,-0.961005 -0.33858,0.06462 -0.8773,-0.187743 -0.99335,0.25586 z" />
      <path
         id="path469"
         d="m 155.26562,62.513672 c -0.1532,0.714791 0.0972,1.025956 0.8293,0.855469 0.78412,0 1.56823,0 2.35235,0 -0.14512,-0.416474 0.32038,-1.443561 -0.3,-1.384766 -0.96055,0 -1.9211,0 -2.88165,0 0,0.176432 0,0.352865 0,0.529297 z" />
      <path
         id="path471"
         d="m 158.25391,59.3125 c 0,1.352214 0,2.704427 0,4.056641 0.43682,-0.146252 1.49493,0.328783 1.44921,-0.3 0,-1.428646 10e-6,-2.857292 0,-4.285938 -0.43682,0.146251 -1.49492,-0.328783 -1.44921,0.3 0,0.07643 0,0.152865 0,0.229297 z" />
      <path
         id="path473"
         d="m 162.50195,59.3125 c 0,1.352214 0,2.704427 0,4.056641 0.43682,-0.146252 1.49493,0.328783 1.44922,-0.3 0,-1.428646 0,-2.857292 0,-4.285938 -0.43682,0.146251 -1.49493,-0.328783 -1.44922,0.3 0,0.07643 0,0.152865 0,0.229297 z" />
      <path
         id="path475"
         d="m 164.625,59.3125 c 0,1.352214 0,2.704427 0,4.056641 0.43745,-0.146276 1.49648,0.329033 1.45117,-0.3 0,-1.428646 0,-2.857292 0,-4.285938 -0.43745,0.146275 -1.49648,-0.329033 -1.45117,0.3 0,0.07643 0,0.152865 0,0.229297 z" />
      <path
         id="path477"
         d="m 169.2832,59.058594 c -0.83634,1.099636 -0.78924,2.691635 0.0516,3.775087 0.29963,0.312154 1.385,0.197724 1.59969,0.08042 -0.53399,-0.938268 -1.05521,-2.111358 -0.43017,-3.142355 0.28943,-0.549316 0.76811,-1.215357 -0.22194,-0.969009 -0.33976,0.0654 -0.88238,-0.188973 -0.99922,0.25586 z" />
      <path
         id="path479"
         d="m 170.13281,62.513672 c -0.1532,0.714791 0.0972,1.025956 0.8293,0.855469 0.78411,0 1.56823,0 2.35234,0 -0.14511,-0.416474 0.32039,-1.443561 -0.3,-1.384766 -0.96054,0 -1.92109,0 -2.88164,0 0,0.176432 0,0.352865 0,0.529297 z" />
      <path
         id="path481"
         d="m 173.12109,59.3125 c 0,1.352214 0,2.704427 0,4.056641 0.43683,-0.146252 1.49493,0.328783 1.44922,-0.3 0,-1.428646 0,-2.857292 0,-4.285938 -0.43682,0.146251 -1.49493,-0.328783 -1.44922,0.3 0,0.07643 0,0.152865 0,0.229297 z" />
      <path
         id="path483"
         d="m 177.36914,59.3125 c 0,1.352214 0,2.704427 0,4.056641 0.43682,-0.146252 1.49493,0.328783 1.44922,-0.3 0,-1.428646 0,-2.857292 0,-4.285938 -0.43682,0.146251 -1.49493,-0.328783 -1.44922,0.3 0,0.07643 0,0.152865 0,0.229297 z" />
      <path
         id="path485"
         d="m 179.49414,59.3125 c 0,1.352214 0,2.704427 0,4.056641 0.43682,-0.146252 1.49493,0.328783 1.44922,-0.3 0,-1.428646 0,-2.857292 0,-4.285938 -0.43682,0.146251 -1.49493,-0.328783 -1.44922,0.3 0,0.07643 0,0.152865 0,0.229297 z" />
      <path
         id="path487"
         d="m 183.74023,59.3125 c 0,1.352214 0,2.704427 0,4.056641 0.43745,-0.146276 1.49649,0.329033 1.45118,-0.3 0,-1.428646 0,-2.857292 0,-4.285938 -0.43745,0.146275 -1.49648,-0.329033 -1.45118,0.3 0,0.07643 0,0.152865 0,0.229297 z" />
      <path
         id="path489"
         d="m 185,62.513672 c -0.1532,0.714791 0.0972,1.025956 0.8293,0.855469 0.78476,0 1.56953,0 2.35429,0 -0.14511,-0.416474 0.32039,-1.443561 -0.3,-1.384766 -0.96119,0 -1.92239,0 -2.88359,0 0,0.176432 0,0.352865 0,0.529297 z" />
      <path
         id="path491"
         d="m 187.98828,59.3125 c 0,1.352214 0,2.704427 0,4.056641 0.43682,-0.146252 1.49493,0.328783 1.44922,-0.3 0,-1.428646 0,-2.857292 0,-4.285938 -0.43682,0.146251 -1.49493,-0.328783 -1.44922,0.3 0,0.07643 0,0.152865 0,0.229297 z" />
      <path
         id="path493"
         d="m 192.23633,59.3125 c 0,1.352214 0,2.704427 0,4.056641 0.43682,-0.146252 1.49493,0.328783 1.44922,-0.3 0,-1.428646 0,-2.857292 0,-4.285938 -0.43682,0.146251 -1.49493,-0.328783 -1.44922,0.3 0,0.07643 0,0.152865 0,0.229297 z" />
      <path
         id="path495"
         d="m 193.73828,59.662109 c 0.49876,1.067679 0.99694,2.135632 1.4961,3.203125 0.4141,-0.108133 1.52982,0.229655 1.46782,-0.18108 -0.58996,-1.258147 -1.17752,-2.517416 -1.76665,-3.775951 -0.41347,0.10813 -1.52847,-0.229617 -1.46587,0.181081 0.0895,0.190942 0.17907,0.381883 0.2686,0.572825 z" />
      <path
         id="path497"
         d="m 195.61914,62.513672 c -0.1532,0.714791 0.0972,1.025956 0.8293,0.855469 0.78476,0 1.56953,0 2.35429,0 -0.14511,-0.416474 0.32039,-1.443561 -0.3,-1.384766 -0.96119,0 -1.92239,0 -2.88359,0 0,0.176432 0,0.352865 0,0.529297 z" />
      <path
         id="path499"
         d="m 197.74414,62.513672 c -0.1532,0.714791 0.0972,1.025956 0.8293,0.855469 0.78411,0 1.56823,0 2.35234,0 -0.14511,-0.416474 0.32039,-1.443561 -0.3,-1.384766 -0.96055,0 -1.92109,0 -2.88164,0 0,0.176432 0,0.352865 0,0.529297 z" />
      <path
         id="path501"
         d="m 202.23438,59.662109 c 0.49876,1.067679 0.99693,2.135632 1.49609,3.203125 0.41346,-0.10813 1.52846,0.229617 1.46587,-0.18108 -0.58992,-1.257862 -1.17584,-2.517594 -1.7647,-3.775951 -0.41346,0.10813 -1.52846,-0.229617 -1.46587,0.181081 0.0895,0.190942 0.17907,0.381883 0.26861,0.572825 z" />
      <path
         id="path503"
         d="m 22.324219,63.722656 c 0,1.352214 0,2.704427 0,4.056641 0.436822,-0.146251 1.494929,0.328783 1.449219,-0.3 0,-1.428646 -10e-7,-2.857292 0,-4.285938 -0.436822,0.146252 -1.494929,-0.328783 -1.449219,0.3 0,0.07643 0,0.152865 0,0.229297 z" />
      <path
         id="path505"
         d="m 23.583984,66.923828 c -0.153202,0.714791 0.09722,1.025956 0.829297,0.855469 0.784115,0 1.568229,0 2.352344,0 -0.145115,-0.416473 0.320384,-1.443561 -0.3,-1.384766 -0.960547,0 -1.921094,0 -2.881641,0 0,0.176433 0,0.352865 0,0.529297 z" />
      <path
         id="path507"
         d="m 26.572266,63.722656 c 0,1.352214 0,2.704427 0,4.056641 0.436821,-0.146251 1.494928,0.328783 1.449218,-0.3 0,-1.428646 0,-2.857292 0,-4.285938 -0.436821,0.146252 -1.494928,-0.328783 -1.449218,0.3 0,0.07643 0,0.152865 0,0.229297 z" />
      <path
         id="path509"
         d="m 30.197266,64.072266 c 0.49876,1.067679 0.996936,2.135631 1.496093,3.203125 0.414109,-0.108134 1.529827,0.229655 1.467824,-0.181081 -0.589919,-1.257861 -1.175839,-2.517593 -1.764699,-3.775951 -0.414108,0.108134 -1.529827,-0.229655 -1.467823,0.181081 0.08953,0.190942 0.17907,0.381884 0.268605,0.572826 z" />
      <path
         id="path511"
         d="m 32.080078,66.923828 c -0.153202,0.714791 0.09722,1.025956 0.829297,0.855469 0.784115,0 1.568229,0 2.352344,0 -0.145115,-0.416473 0.320384,-1.443561 -0.3,-1.384766 -0.960547,0 -1.921094,0 -2.881641,0 0,0.176433 0,0.352865 0,0.529297 z" />
      <path
         id="path513"
         d="m 34.203125,66.923828 c -0.153202,0.714791 0.09722,1.025956 0.829297,0.855469 0.784114,0 1.568229,0 2.352344,0 -0.145116,-0.416473 0.320383,-1.443561 -0.3,-1.384766 -0.960547,0 -1.921094,0 -2.881641,0 0,0.176433 0,0.352865 0,0.529297 z" />
      <path
         id="path515"
         d="m 37.191406,63.722656 c 0,1.352214 0,2.704427 0,4.056641 0.436822,-0.146251 1.494929,0.328783 1.449219,-0.3 0,-1.428646 0,-2.857292 0,-4.285938 -0.436822,0.146252 -1.494929,-0.328783 -1.449219,0.3 0,0.07643 0,0.152865 0,0.229297 z" />
      <path
         id="path517"
         d="m 45.6875,63.722656 c 0,1.352214 0,2.704427 0,4.056641 0.436822,-0.146251 1.494929,0.328783 1.449219,-0.3 0,-1.428646 0,-2.857292 0,-4.285938 -0.436822,0.146252 -1.494929,-0.328783 -1.449219,0.3 0,0.07643 0,0.152865 0,0.229297 z" />
      <path
         id="path519"
         d="m 46.947266,66.923828 c -0.153203,0.714791 0.09722,1.025956 0.829296,0.855469 0.784115,0 1.56823,0 2.352344,0 -0.145115,-0.416473 0.320384,-1.443561 -0.3,-1.384766 -0.960547,0 -1.921094,0 -2.88164,0 0,0.176433 0,0.352865 0,0.529297 z" />
      <path
         id="path521"
         d="m 49.935547,63.722656 c 0,1.352214 0,2.704427 0,4.056641 0.436822,-0.146251 1.494929,0.328783 1.449219,-0.3 0,-1.428646 0,-2.857292 0,-4.285938 -0.436822,0.146252 -1.494929,-0.328783 -1.449219,0.3 0,0.07643 0,0.152865 0,0.229297 z" />
      <path
         id="path523"
         d="m 54.595703,63.466797 c -0.870336,1.127905 -0.772784,2.764297 0.10133,3.86072 0.324147,0.0825 1.576713,0.260353 1.503693,-0.09484 -0.561233,-0.932396 -0.988513,-2.132176 -0.343594,-3.14049 0.407651,-0.622602 0.564665,-1.08885 -0.366116,-0.879294 -0.318793,0.0564 -0.787797,-0.17114 -0.895313,0.253906 z" />
      <path
         id="path525"
         d="m 55.441406,66.923828 c -0.153202,0.714791 0.09722,1.025956 0.829297,0.855469 0.784766,0 1.569531,0 2.354297,0 -0.145115,-0.416473 0.320384,-1.443561 -0.3,-1.384766 -0.961198,0 -1.922396,0 -2.883594,0 0,0.176433 0,0.352865 0,0.529297 z" />
      <path
         id="path527"
         d="m 58.152344,63.976562 c 0.6309,0.942031 0.402949,2.13056 -0.176674,3.032697 -0.560218,0.720189 0.733686,0.286544 1.143861,0.40285 0.447337,-0.07757 0.605895,-0.741254 0.810157,-1.140625 0.38554,-1.045863 0.03225,-2.197402 -0.613282,-3.058593 -0.396601,0.134927 -1.706346,-0.29774 -1.408229,0.269012 0.08139,0.164887 0.162778,0.329773 0.244167,0.494659 z" />
      <path
         id="path529"
         d="m 60.554688,63.722656 c 0,1.352214 -10e-7,2.704427 0,4.056641 0.436821,-0.146251 1.494928,0.328783 1.449218,-0.3 0,-1.428646 0,-2.857292 0,-4.285938 -0.436822,0.146252 -1.494929,-0.328783 -1.449218,0.3 -10e-7,0.07643 -10e-7,0.152865 0,0.229297 z" />
      <path
         id="path531"
         d="m 61.814453,66.923828 c -0.153202,0.714791 0.09722,1.025956 0.829297,0.855469 0.784115,0 1.568229,0 2.352344,0 -0.145115,-0.416473 0.320384,-1.443561 -0.3,-1.384766 -0.960547,0 -1.921094,0 -2.881641,0 0,0.176433 0,0.352865 0,0.529297 z" />
      <path
         id="path533"
         d="m 63.9375,66.923828 c -0.153202,0.714791 0.09722,1.025956 0.829297,0.855469 0.784766,0 1.569531,0 2.354297,0 -0.145115,-0.416473 0.320384,-1.443561 -0.3,-1.384766 -0.961198,0 -1.922396,0 -2.883594,0 0,0.176433 0,0.352865 0,0.529297 z" />
      <path
         id="path535"
         d="m 66.0625,66.923828 c -0.153202,0.714791 0.09722,1.025956 0.829297,0.855469 0.784114,0 1.568229,0 2.352344,0 -0.145116,-0.416473 0.320383,-1.443561 -0.3,-1.384766 -0.960547,0 -1.921094,0 -2.881641,0 0,0.176433 0,0.352865 0,0.529297 z" />
      <path
         id="path537"
         d="m 69.785156,63.623047 c -0.569061,1.217424 -1.13613,2.43578 -1.707031,3.652344 0.509675,-0.115178 1.312232,0.230059 1.633596,-0.181148 0.588545,-1.258504 1.174611,-2.518168 1.764841,-3.775884 -0.509675,0.115178 -1.312231,-0.230059 -1.633595,0.181148 l -0.04238,0.09057 z" />
      <path
         id="path539"
         d="m 72.675781,64.072266 c 0.498761,1.067679 0.996936,2.135631 1.496094,3.203125 0.414109,-0.108134 1.529827,0.229655 1.467824,-0.181081 -0.589959,-1.258147 -1.177521,-2.517416 -1.766652,-3.775951 -0.413463,0.108131 -1.528465,-0.229616 -1.465871,0.181081 0.08953,0.190942 0.17907,0.381884 0.268605,0.572826 z" />
      <path
         id="path541"
         d="m 74.556641,66.923828 c -0.153203,0.714791 0.09722,1.025956 0.829297,0.855469 0.784765,0 1.569531,0 2.354296,0 -0.145115,-0.416473 0.320384,-1.443561 -0.3,-1.384766 -0.961198,0 -1.922395,0 -2.883593,0 0,0.176433 0,0.352865 0,0.529297 z" />
      <path
         id="path543"
         d="m 76.681641,66.923828 c -0.153203,0.714791 0.09722,1.025956 0.829296,0.855469 0.784115,0 1.56823,0 2.352344,0 -0.145115,-0.416473 0.320384,-1.443561 -0.3,-1.384766 -0.960547,0 -1.921094,0 -2.88164,0 0,0.176433 0,0.352865 0,0.529297 z" />
      <path
         id="path545"
         d="m 78.804688,66.923828 c -0.153203,0.714791 0.09722,1.025956 0.829296,0.855469 0.784766,0 1.569532,0 2.354297,0 -0.145115,-0.416473 0.320384,-1.443561 -0.3,-1.384766 -0.961198,0 -1.922396,0 -2.883593,0 0,0.176433 0,0.352865 0,0.529297 z" />
      <path
         id="path547"
         d="m 81.792969,63.722656 c 0,1.352214 0,2.704427 0,4.056641 0.437448,-0.146275 1.496481,0.329033 1.451172,-0.3 0,-1.428646 0,-2.857292 0,-4.285938 -0.437449,0.146276 -1.496481,-0.329033 -1.451172,0.3 0,0.07643 0,0.152865 0,0.229297 z" />
      <path
         id="path549"
         d="m 83.917969,63.722656 c 0,1.352214 0,2.704427 0,4.056641 0.436822,-0.146251 1.494929,0.328783 1.449219,-0.3 0,-1.428646 -10e-7,-2.857292 0,-4.285938 -0.436822,0.146252 -1.494929,-0.328783 -1.449219,0.3 0,0.07643 0,0.152865 0,0.229297 z" />
      <path
         id="path551"
         d="m 85.177734,66.923828 c -0.153202,0.714791 0.09722,1.025956 0.829297,0.855469 0.784115,0 1.568229,0 2.352344,0 -0.145115,-0.416473 0.320384,-1.443561 -0.3,-1.384766 -0.960547,0 -1.921094,0 -2.881641,0 0,0.176433 0,0.352865 0,0.529297 z" />
      <path
         id="path553"
         d="m 88.166016,63.722656 c 0,1.352214 0,2.704427 0,4.056641 0.436821,-0.146251 1.494928,0.328783 1.449218,-0.3 0,-1.428646 0,-2.857292 0,-4.285938 -0.436821,0.146252 -1.494928,-0.328783 -1.449218,0.3 0,0.07643 0,0.152865 0,0.229297 z" />
      <path
         id="path555"
         d="m 91.791016,64.072266 c 0.49876,1.067679 0.996936,2.135631 1.496093,3.203125 0.414109,-0.108134 1.529827,0.229655 1.467824,-0.181081 -0.589959,-1.258147 -1.177521,-2.517416 -1.766652,-3.775951 -0.413462,0.108131 -1.528465,-0.229616 -1.46587,0.181081 0.08953,0.190942 0.17907,0.381884 0.268605,0.572826 z" />
      <path
         id="path557"
         d="m 93.671875,66.923828 c -0.153202,0.714791 0.09722,1.025956 0.829297,0.855469 0.784766,0 1.569531,0 2.354297,0 -0.145115,-0.416473 0.320384,-1.443561 -0.3,-1.384766 -0.961198,0 -1.922396,0 -2.883594,0 0,0.176433 0,0.352865 0,0.529297 z" />
      <path
         id="path559"
         d="m 95.796875,66.923828 c -0.153202,0.714791 0.09722,1.025956 0.829297,0.855469 0.784114,0 1.568229,0 2.352344,0 -0.145116,-0.416473 0.320383,-1.443561 -0.3,-1.384766 -0.960547,0 -1.921094,0 -2.881641,0 0,0.176433 0,0.352865 0,0.529297 z" />
      <path
         id="path561"
         d="m 97.919922,66.923828 c -0.153202,0.714791 0.09722,1.025956 0.829297,0.855469 0.784765,0 1.569531,0 2.354301,0 -0.14512,-0.416473 0.32038,-1.443561 -0.3,-1.384766 -0.961202,0 -1.9224,0 -2.883598,0 0,0.176433 0,0.352865 0,0.529297 z" />
      <path
         id="path563"
         d="m 100.9082,63.722656 c 0,1.352214 0,2.704427 0,4.056641 0.43745,-0.146275 1.49648,0.329033 1.45118,-0.3 0,-1.428646 -1e-5,-2.857292 0,-4.285938 -0.43745,0.146276 -1.49649,-0.329033 -1.45118,0.3 0,0.07643 0,0.152865 0,0.229297 z" />
      <path
         id="path565"
         d="m 103.0332,63.722656 c 0,1.352214 0,2.704427 0,4.056641 0.43682,-0.146251 1.49493,0.328783 1.44922,-0.3 0,-1.428646 0,-2.857292 0,-4.285938 -0.43682,0.146252 -1.49493,-0.328783 -1.44922,0.3 0,0.07643 0,0.152865 0,0.229297 z" />
      <path
         id="path567"
         d="m 104.29102,66.923828 c -0.15321,0.714791 0.0972,1.025956 0.82929,0.855469 0.78477,0 1.56953,0 2.3543,0 -0.14512,-0.416473 0.32038,-1.443561 -0.3,-1.384766 -0.9612,0 -1.9224,0 -2.88359,0 0,0.176433 0,0.352865 0,0.529297 z" />
      <path
         id="path569"
         d="m 107.28125,63.722656 c 0,1.352214 0,2.704427 0,4.056641 0.43682,-0.146251 1.49493,0.328783 1.44922,-0.3 0,-1.428646 0,-2.857292 0,-4.285938 -0.43682,0.146252 -1.49493,-0.328783 -1.44922,0.3 0,0.07643 0,0.152865 0,0.229297 z" />
      <path
         id="path571"
         d="m 111.5293,63.722656 c 0,1.352214 0,2.704427 0,4.056641 0.43682,-0.146251 1.49493,0.328783 1.44922,-0.3 0,-1.428646 0,-2.857292 0,-4.285938 -0.43683,0.146252 -1.49493,-0.328783 -1.44922,0.3 0,0.07643 0,0.152865 0,0.229297 z" />
      <path
         id="path573"
         d="m 112.78711,66.923828 c -0.1532,0.714791 0.0972,1.025956 0.8293,0.855469 0.78476,0 1.56953,0 2.35429,0 -0.14511,-0.416473 0.32039,-1.443561 -0.3,-1.384766 -0.96119,0 -1.92239,0 -2.88359,0 0,0.176433 0,0.352865 0,0.529297 z" />
      <path
         id="path575"
         d="m 115.77539,63.722656 c 0,1.352214 0,2.704427 0,4.056641 0.43745,-0.146275 1.49648,0.329033 1.45117,-0.3 0,-1.428646 0,-2.857292 0,-4.285938 -0.43745,0.146276 -1.49648,-0.329033 -1.45117,0.3 0,0.07643 0,0.152865 0,0.229297 z" />
      <path
         id="path577"
         d="m 119.40039,64.072266 c 0.49937,1.067699 0.99856,2.135482 1.49805,3.203125 0.41346,-0.108131 1.52846,0.229616 1.46587,-0.181081 -0.58992,-1.257861 -1.17584,-2.517593 -1.7647,-3.775951 -0.41411,0.108134 -1.52983,-0.229655 -1.46782,0.181081 0.0895,0.190942 0.17907,0.381884 0.2686,0.572826 z" />
      <path
         id="path579"
         d="m 121.2832,66.923828 c -0.1532,0.714791 0.0972,1.025956 0.8293,0.855469 0.78411,0 1.56823,0 2.35234,0 -0.14511,-0.416473 0.32039,-1.443561 -0.3,-1.384766 -0.96054,0 -1.92109,0 -2.88164,0 0,0.176433 0,0.352865 0,0.529297 z" />
      <path
         id="path581"
         d="m 123.40625,66.923828 c -0.1532,0.714791 0.0972,1.025956 0.8293,0.855469 0.78476,0 1.56953,0 2.35429,0 -0.14511,-0.416473 0.32039,-1.443561 -0.3,-1.384766 -0.96119,0 -1.92239,0 -2.88359,0 0,0.176433 0,0.352865 0,0.529297 z" />
      <path
         id="path583"
         d="m 125.53125,66.923828 c -0.1532,0.714791 0.0972,1.025956 0.8293,0.855469 0.78411,0 1.56823,0 2.35234,0 -0.14511,-0.416473 0.32038,-1.443561 -0.3,-1.384766 -0.96055,0 -1.92109,0 -2.88164,0 0,0.176433 0,0.352865 0,0.529297 z" />
      <path
         id="path585"
         d="m 128.51953,63.722656 c 0,1.352214 0,2.704427 0,4.056641 0.43682,-0.146251 1.49493,0.328783 1.44922,-0.3 0,-1.428646 0,-2.857292 0,-4.285938 -0.43682,0.146252 -1.49493,-0.328783 -1.44922,0.3 0,0.07643 0,0.152865 0,0.229297 z" />
      <path
         id="path587"
         d="m 130.02148,64.072266 c 0.49877,1.067679 0.99694,2.135631 1.4961,3.203125 0.41411,-0.108134 1.52983,0.229655 1.46782,-0.181081 -0.58996,-1.258147 -1.17752,-2.517416 -1.76665,-3.775951 -0.41346,0.108131 -1.52846,-0.229616 -1.46587,0.181081 0.0895,0.190942 0.17907,0.381884 0.2686,0.572826 z" />
      <path
         id="path589"
         d="m 131.90234,66.923828 c -0.1532,0.714791 0.0972,1.025956 0.8293,0.855469 0.78477,0 1.56953,0 2.3543,0 -0.14512,-0.416473 0.32038,-1.443561 -0.3,-1.384766 -0.9612,0 -1.9224,0 -2.8836,0 0,0.176433 0,0.352865 0,0.529297 z" />
      <path
         id="path591"
         d="m 134.02734,66.923828 c -0.1532,0.714791 0.0972,1.025956 0.8293,0.855469 0.78412,0 1.56823,0 2.35234,0 -0.14511,-0.416473 0.32039,-1.443561 -0.3,-1.384766 -0.96054,0 -1.92109,0 -2.88164,0 0,0.176433 0,0.352865 0,0.529297 z" />
      <path
         id="path593"
         d="m 136.15039,66.923828 c -0.1532,0.714791 0.0972,1.025956 0.8293,0.855469 0.78411,0 1.56823,0 2.35234,0 -0.14511,-0.416473 0.32039,-1.443561 -0.3,-1.384766 -0.96055,0 -1.92109,0 -2.88164,0 0,0.176433 0,0.352865 0,0.529297 z" />
      <path
         id="path595"
         d="m 139.13867,63.722656 c 0,1.352214 0,2.704427 0,4.056641 0.43682,-0.146251 1.49493,0.328783 1.44922,-0.3 0,-1.428646 0,-2.857292 0,-4.285938 -0.43682,0.146252 -1.49493,-0.328783 -1.44922,0.3 0,0.07643 0,0.152865 0,0.229297 z" />
      <path
         id="path597"
         d="m 141.99805,63.623047 c -0.56906,1.217424 -1.13613,2.43578 -1.70703,3.652344 0.50909,-0.115072 1.31078,0.229827 1.63164,-0.181148 0.58903,-1.258579 1.1766,-2.517845 1.76679,-3.775884 -0.50967,0.115178 -1.31223,-0.230059 -1.63359,0.181148 l -0.0424,0.09057 z" />
      <path
         id="path599"
         d="m 142.52148,66.923828 c -0.1532,0.714791 0.0972,1.025956 0.8293,0.855469 0.78477,0 1.56953,0 2.3543,0 -0.14512,-0.416473 0.32038,-1.443561 -0.3,-1.384766 -0.9612,0 -1.9224,0 -2.8836,0 0,0.176433 0,0.352865 0,0.529297 z" />
      <path
         id="path601"
         d="m 146.24609,63.623047 c -0.56969,1.217432 -1.13809,2.435472 -1.70898,3.652344 0.50967,-0.115178 1.31223,0.230059 1.6336,-0.181148 0.58903,-1.258579 1.1766,-2.517845 1.76679,-3.775884 -0.50968,0.115178 -1.31223,-0.230059 -1.6336,0.181148 l -0.0424,0.09057 z" />
      <path
         id="path603"
         d="m 151.25977,64.072266 c 0.49876,1.067679 0.99693,2.135631 1.49609,3.203125 0.41411,-0.108134 1.52983,0.229655 1.46782,-0.181081 -0.58992,-1.257861 -1.17584,-2.517593 -1.7647,-3.775951 -0.4141,0.108134 -1.52982,-0.229655 -1.46782,0.181081 0.0895,0.190942 0.17907,0.381884 0.26861,0.572826 z" />
      <path
         id="path605"
         d="m 153.14258,66.923828 c -0.1532,0.714791 0.0972,1.025956 0.8293,0.855469 0.78411,0 1.56822,0 2.35234,0 -0.14512,-0.416473 0.32038,-1.443561 -0.3,-1.384766 -0.96055,0 -1.92109,0 -2.88164,0 0,0.176433 0,0.352865 0,0.529297 z" />
      <path
         id="path607"
         d="m 155.26562,66.923828 c -0.1532,0.714791 0.0972,1.025956 0.8293,0.855469 0.78412,0 1.56823,0 2.35235,0 -0.14512,-0.416473 0.32038,-1.443561 -0.3,-1.384766 -0.96055,0 -1.9211,0 -2.88165,0 0,0.176433 10e-6,0.352865 0,0.529297 z" />
      <path
         id="path609"
         d="m 158.18359,65.787109 c 0.0476,0.571255 -0.21771,1.102761 -0.32421,1.654297 0.48677,-0.131339 1.31431,0.29712 1.52539,-0.287109 0.43506,-0.558883 0.43746,-1.222614 0.39648,-1.896485 -0.49644,0.06944 -1.26867,-0.136898 -1.59766,0.100001 0,0.143098 0,0.286197 0,0.429296 z" />
      <path
         id="path611"
         d="m 159.51367,66.923828 c -0.1532,0.714791 0.0972,1.025956 0.8293,0.855469 0.78411,0 1.56823,0 2.35234,0 -0.14511,-0.416473 0.32039,-1.443561 -0.3,-1.384766 -0.96054,0 -1.92109,0 -2.88164,0 0,0.176433 0,0.352865 0,0.529297 z" />
      <path
         id="path613"
         d="m 162.50195,63.722656 c 0,1.352214 0,2.704427 0,4.056641 0.43682,-0.146251 1.49493,0.328783 1.44922,-0.3 0,-1.428646 0,-2.857292 0,-4.285938 -0.43682,0.146252 -1.49493,-0.328783 -1.44922,0.3 0,0.07643 0,0.152865 0,0.229297 z" />
      <path
         id="path615"
         d="m 166.12695,64.072266 c 0.49876,1.067679 0.99694,2.135631 1.4961,3.203125 0.41411,-0.108134 1.52982,0.229655 1.46782,-0.181081 -0.58992,-1.257861 -1.17584,-2.517593 -1.7647,-3.775951 -0.41411,0.108134 -1.52983,-0.229655 -1.46782,0.181081 0.0895,0.190942 0.17907,0.381884 0.2686,0.572826 z" />
      <path
         id="path617"
         d="m 168.00977,66.923828 c -0.15321,0.714791 0.0972,1.025956 0.82929,0.855469 0.78412,0 1.56823,0 2.35235,0 -0.14512,-0.416473 0.32038,-1.443561 -0.3,-1.384766 -0.96055,0 -1.9211,0 -2.88164,0 0,0.176433 0,0.352865 0,0.529297 z" />
      <path
         id="path619"
         d="m 170.13281,66.923828 c -0.1532,0.714791 0.0972,1.025956 0.8293,0.855469 0.78411,0 1.56823,0 2.35234,0 -0.14511,-0.416473 0.32039,-1.443561 -0.3,-1.384766 -0.96054,0 -1.92109,0 -2.88164,0 0,0.176433 0,0.352865 0,0.529297 z" />
      <path
         id="path621"
         d="m 173.05078,65.787109 c 0.0476,0.571255 -0.21771,1.102761 -0.32422,1.654297 0.48677,-0.131339 1.31431,0.29712 1.52539,-0.287109 0.43507,-0.558883 0.43747,-1.222614 0.39649,-1.896485 -0.49645,0.06944 -1.26867,-0.136898 -1.59766,0.100001 0,0.143098 0,0.286197 0,0.429296 z" />
      <path
         id="path623"
         d="m 174.38086,66.923828 c -0.1532,0.714791 0.0972,1.025956 0.8293,0.855469 0.78411,0 1.56823,0 2.35234,0 -0.14512,-0.416473 0.32038,-1.443561 -0.3,-1.384766 -0.96055,0 -1.92109,0 -2.88164,0 0,0.176433 0,0.352865 0,0.529297 z" />
      <path
         id="path625"
         d="m 177.36914,63.722656 c 0,1.352214 0,2.704427 0,4.056641 0.43682,-0.146251 1.49493,0.328783 1.44922,-0.3 0,-1.428646 0,-2.857292 0,-4.285938 -0.43682,0.146252 -1.49493,-0.328783 -1.44922,0.3 0,0.07643 0,0.152865 0,0.229297 z" />
      <path
         id="path627"
         d="m 180.99414,64.072266 c 0.49876,1.067679 0.99694,2.135631 1.49609,3.203125 0.41411,-0.108134 1.52983,0.229655 1.46783,-0.181081 -0.58992,-1.257861 -1.17584,-2.517593 -1.7647,-3.775951 -0.41411,0.108134 -1.52983,-0.229655 -1.46782,0.181081 0.0895,0.190942 0.17907,0.381884 0.2686,0.572826 z" />
      <path
         id="path629"
         d="m 182.87695,66.923828 c -0.1532,0.714791 0.0972,1.025956 0.8293,0.855469 0.78411,0 1.56823,0 2.35234,0 -0.14511,-0.416473 0.32039,-1.443561 -0.3,-1.384766 -0.96054,0 -1.92109,0 -2.88164,0 0,0.176433 0,0.352865 0,0.529297 z" />
      <path
         id="path631"
         d="m 185,66.923828 c -0.1532,0.714791 0.0972,1.025956 0.8293,0.855469 0.78476,0 1.56953,0 2.35429,0 -0.14511,-0.416473 0.32039,-1.443561 -0.3,-1.384766 -0.96119,0 -1.92239,0 -2.88359,0 0,0.176433 0,0.352865 0,0.529297 z" />
      <path
         id="path633"
         d="m 187.91797,65.787109 c 0.0476,0.571255 -0.21772,1.102761 -0.32422,1.654297 0.48677,-0.131339 1.31431,0.29712 1.52539,-0.287109 0.43506,-0.558883 0.43746,-1.222614 0.39648,-1.896485 -0.49644,0.06944 -1.26866,-0.136898 -1.59765,0.100001 0,0.143098 0,0.286197 0,0.429296 z" />
      <path
         id="path635"
         d="m 192.23633,63.722656 c 0,1.352214 0,2.704427 0,4.056641 0.43682,-0.146251 1.49493,0.328783 1.44922,-0.3 0,-1.428646 0,-2.857292 0,-4.285938 -0.43682,0.146252 -1.49493,-0.328783 -1.44922,0.3 0,0.07643 0,0.152865 0,0.229297 z" />
      <path
         id="path637"
         d="m 194.36133,63.722656 c 0,1.352214 0,2.704427 0,4.056641 0.43682,-0.146251 1.49493,0.328783 1.44922,-0.3 0,-1.428646 0,-2.857292 0,-4.285938 -0.43682,0.146252 -1.49493,-0.328783 -1.44922,0.3 0,0.07643 0,0.152865 0,0.229297 z" />
      <path
         id="path639"
         d="m 195.61914,66.923828 c -0.1532,0.714791 0.0972,1.025956 0.8293,0.855469 0.78476,0 1.56953,0 2.35429,0 -0.14511,-0.416473 0.32039,-1.443561 -0.3,-1.384766 -0.96119,0 -1.92239,0 -2.88359,0 0,0.176433 0,0.352865 0,0.529297 z" />
      <path
         id="path641"
         d="m 197.74414,66.923828 c -0.1532,0.714791 0.0972,1.025956 0.8293,0.855469 0.78411,0 1.56823,0 2.35234,0 -0.14511,-0.416473 0.32039,-1.443561 -0.3,-1.384766 -0.96055,0 -1.92109,0 -2.88164,0 0,0.176433 0,0.352865 0,0.529297 z" />
      <path
         id="path643"
         d="m 199.86719,66.923828 c -0.1532,0.714791 0.0972,1.025956 0.82929,0.855469 0.78477,0 1.56954,0 2.3543,0 -0.14511,-0.416473 0.32039,-1.443561 -0.3,-1.384766 -0.9612,0 -1.92239,0 -2.88359,0 0,0.176433 0,0.352865 0,0.529297 z" />
      <path
         id="path645"
         d="m 203.58984,63.623047 c -0.56906,1.217424 -1.13613,2.43578 -1.70703,3.652344 0.50968,-0.115178 1.31223,0.230059 1.6336,-0.181148 0.58854,-1.258504 1.17461,-2.518168 1.76484,-3.775884 -0.50968,0.115178 -1.31223,-0.230059 -1.6336,0.181148 l -0.0424,0.09057 z" />
      <path
         id="path647"
         d="m 181.61719,68.132812 c 0,1.352214 0,2.704428 0,4.056641 0.43682,-0.146251 1.49493,0.328783 1.44922,-0.3 0,-1.428646 0,-2.857292 0,-4.285937 -0.43683,0.146251 -1.49493,-0.328783 -1.44922,0.3 0,0.07643 0,0.152864 0,0.229296 z" />
      <path
         id="path649"
         d="m 182.87695,71.332031 c -0.15302,0.71526 0.0959,1.028549 0.8293,0.857422 0.78411,0 1.56823,0 2.35234,0 -0.14516,-0.417079 0.32065,-1.445122 -0.3,-1.386719 -0.96054,0 -1.92109,0 -2.88164,0 0,0.176433 0,0.352865 0,0.529297 z" />
      <path
         id="path651"
         d="m 185,71.332031 c -0.15302,0.71526 0.0959,1.028549 0.8293,0.857422 0.78476,0 1.56953,0 2.35429,0 -0.14516,-0.417079 0.32065,-1.445122 -0.3,-1.386719 -0.96119,0 -1.92239,0 -2.88359,0 0,0.176433 0,0.352865 0,0.529297 z" />
      <path
         id="path653"
         d="m 187.125,71.332031 c -0.15302,0.71526 0.0959,1.028549 0.8293,0.857422 0.78411,0 1.56823,0 2.35234,0 -0.14516,-0.417079 0.32064,-1.445122 -0.3,-1.386719 -0.96055,0 -1.92109,0 -2.88164,0 0,0.176433 0,0.352865 0,0.529297 z" />
      <path
         id="path655"
         d="m 190.8457,68.03125 c -0.56759,1.218153 -1.13836,2.434829 -1.70312,3.654297 0.50985,-0.114902 1.31192,0.229572 1.63359,-0.181148 0.5871,-1.259224 1.1769,-2.517188 1.76094,-3.777837 -0.50985,0.114902 -1.31192,-0.229572 -1.6336,0.181148 l -0.0424,0.09057 z" />
    </g>
  </g>
</svg>
